<svg id="Слой_1" data-name="Слой 1" xmlns="http://www.w3.org/2000/svg" xmlns:xlink="http://www.w3.org/1999/xlink" viewBox="0 0 131.6 131.95"><defs><style>.cls-1{fill:#f7be89;}.cls-2{fill:#ffd7b6;}.cls-3{fill:#161616;}.cls-4{fill:url(#linear-gradient);}.cls-5{fill:#fff;}.cls-6{fill:#f4aa6e;}</style><linearGradient id="linear-gradient" x1="383.6" y1="157.15" x2="400.32" y2="192.15" gradientTransform="translate(-30.02)" gradientUnits="userSpaceOnUse"><stop offset="0" stop-color="#535353"/><stop offset="1" stop-color="#161616"/></linearGradient></defs><path class="cls-1" d="M334.9,202.53c0,.19.06.42.09.62v0C335,202.9,334.92,202.69,334.9,202.53Z" transform="translate(-290.21 -158.78)"/><path class="cls-1" d="M334.9,202.53c0-.41-.09-.65,0,0Z" transform="translate(-290.21 -158.78)"/><path class="cls-1" d="M335,203.51s0-.14-.05-.32h0C335,203.34,335,203.45,335,203.51Z" transform="translate(-290.21 -158.78)"/><path class="cls-1" d="M335,203.19h0Z" transform="translate(-290.21 -158.78)"/><path class="cls-1" d="M335,203.18v0Z" transform="translate(-290.21 -158.78)"/><path class="cls-2" d="M322.18,167.38a46.74,46.74,0,0,0,2.9-4.57,13.57,13.57,0,0,0-2.18-2.46c-1.39,1-2.69,4.06-3.59,6.52l1.1.51S321.54,168,322.18,167.38Z" transform="translate(-290.21 -158.78)"/><path class="cls-1" d="M332.38,232.12c-2.77,0-5-2.63-5-5.85V194.36c-2.69,1.4-5.14,2.89-5.14,2.89V181.37a48.1,48.1,0,0,0,5.14-10v-5.82a8.75,8.75,0,0,0-2.84-5.2,1.24,1.24,0,0,0-1.6,0,13.57,13.57,0,0,1,2.18,2.46,46.74,46.74,0,0,1-2.9,4.57c-.64.64-1.77,0-1.77,0l-1.1-.51c-.59,1.62-.44,1.31-.59,1.62-2.12,4.41-6.45,3.84-6.76,8.65-.4,6-6.83,16.2-5.28,21.43,1.43,4.86.37,10.13.31,15.13,0,1.36-1.05,3.32-1,4.3-2.41,2.71-15.75,11.06-15.75,11.06l15.56,24.66s15.71-12,23.22-13.44c11.42-2.24,14.24-5.66,17.11-8.16Z" transform="translate(-290.21 -158.78)"/><path class="cls-1" d="M368.35,212.67a2.63,2.63,0,0,0-.91.16v8.27a2.89,2.89,0,0,0,.91.16c2.12,0,4.8-1.93,4.8-4.3S370.47,212.67,368.35,212.67Z" transform="translate(-290.21 -158.78)"/><path class="cls-1" d="M368.67,202a2.33,2.33,0,0,0-1.23.34v9.16a2.33,2.33,0,0,0,1.23.33,4.92,4.92,0,0,0,0-9.83Z" transform="translate(-290.21 -158.78)"/><path class="cls-1" d="M371.78,173.54a7.68,7.68,0,0,0-4.34.55v9.71c3.74.11,6.19-3.64,7.16-6.9C375.38,174.25,371.78,173.54,371.78,173.54Z" transform="translate(-290.21 -158.78)"/><path class="cls-1" d="M372.83,191.71c-1.82-1.93-4.68-.52-5.39-.12v10.24l1.56-.7C374.34,198.76,376.69,195.8,372.83,191.71Z" transform="translate(-290.21 -158.78)"/><path class="cls-3" d="M367.44,226.27c0,3.22-2.27,5.85-5,5.85h-30c-2.77,0-5-2.63-5-5.85V164.63c0-3.22,2.27-5.85,5-5.85h30c2.77,0,5,2.63,5,5.85Z" transform="translate(-290.21 -158.78)"/><path class="cls-4" d="M362.4,158.78H344.62l2.35,7.57h17.16v28.81l3.31,10.65V164.63C367.44,161.41,365.17,158.78,362.4,158.78Z" transform="translate(-290.21 -158.78)"/><rect class="cls-5" x="40.44" y="7.57" width="33.48" height="58.2"/><path class="cls-3" d="M353.37,161.63a.86.86,0,0,1-.79.92h-9.34a.87.87,0,0,1-.8-.92h0a.87.87,0,0,1,.8-.92h9.34a.86.86,0,0,1,.79.92Z" transform="translate(-290.21 -158.78)"/><path d="M352.58,162.8h-9.34a1.18,1.18,0,0,1,0-2.34h9.34a1.18,1.18,0,0,1,0,2.34ZM343.24,161a.68.68,0,0,0,0,1.34h9.34a.69.69,0,0,0,0-1.34Z" transform="translate(-290.21 -158.78)"/><path class="cls-6" d="M365.84,257.57q-3.25-7.24-6.49-14.5c-2-4.52-3.91-9-5.72-13.61l0,0s3.1,19.28,3.52,21.45c1.05,5.35,6.62,9.45,10.2,13.06.69.69,10.79,10.19,10.79,10.19h0c-.67-.71-1.38-1.52-2.17-2.51C372.38,267.19,368.19,262.84,365.84,257.57Z" transform="translate(-290.21 -158.78)"/><path class="cls-1" d="M413.36,261.85c-4.62-5.07-.6-16.33-3.49-22.41-2.1-4.42-5.72-16.44-11.11-17.63-2.51-.56-4.12.92-6.38-1.36-2.53-2.56-4.23.23-6.78-.5s-3.4-4.43-6.46-2c-1.84.86-3,2.48-5.28,1.09-2-1.2-3.48-3.11-5.93-1.34-1.52.62-2.35,2.18-4.28,1.32-1.75-.77-2.72-3.83-3.52-5.41q-4.89-9.56-9.79-19.12c-.93-1.82-2-4.95-3.73-5.89-5.88-3.14-5.14,7.07-4.17,9.83l6.45,18.36c1.51,4.3,3.09,8.52,4.74,12.72,1.81,4.57,3.7,9.09,5.72,13.61q3.24,7.25,6.49,14.5c2.35,5.27,6.54,9.62,10.11,14,.79,1,1.5,1.8,2.17,2.51a30.59,30.59,0,0,0,7.09,5.36c3.91,2.41,10.86,11.25,10.86,11.25l25.74-15.29S415.19,263.86,413.36,261.85Z" transform="translate(-290.21 -158.78)"/><path class="cls-2" d="M342.81,189.84s1,3.72,2.33,3.92,4.34-1.16,4.33-1.19c-.8-1.48-1.46-3.44-2.86-4.07a7.43,7.43,0,0,0-.77-.29C344.7,188.44,343.33,188.89,342.81,189.84Z" transform="translate(-290.21 -158.78)"/></svg>