<svg xmlns="http://www.w3.org/2000/svg" xmlns:xlink="http://www.w3.org/1999/xlink" viewBox="0 0 96.55 96.55"><defs><style>.cls-1{isolation:isolate;}.cls-2{fill:#d1ecfb;}.cls-3{mix-blend-mode:multiply;opacity:0.31;fill:url(#Новый_образец_градиента_3);}.cls-4{fill:#58a097;}.cls-5{fill:#4a9087;}.cls-6{fill:#fcfefb;}.cls-7{fill:#ecfeff;}.cls-8{fill:#cff0f5;}.cls-9{fill:#b9dfe5;}.cls-10{fill:#185377;}.cls-11{fill:#dae2ea;}.cls-12{fill:#545057;}.cls-13{fill:#074b68;}.cls-14{fill:#434444;}.cls-15{fill:#34abea;}.cls-16{fill:#038cd4;}.cls-17{fill:#e73f21;}</style><linearGradient id="Новый_образец_градиента_3" x1="251.56" y1="83.26" x2="327.69" y2="83.26" gradientUnits="userSpaceOnUse"><stop offset="0" stop-color="#8c8c8c"/><stop offset="1" stop-color="#ccc"/></linearGradient></defs><g class="cls-1"><g id="_1" data-name="1"><g id="_16" data-name="16"><path class="cls-2" d="M327.69,69.5a49,49,0,0,1-.45,6.67,48.3,48.3,0,0,1-35.36,40,47,47,0,0,1-8.27,1.45c-1.38.13-2.77.19-4.19.19A48.28,48.28,0,1,1,327.66,68C327.68,68.53,327.69,69,327.69,69.5Z" transform="translate(-231.14 -21.23)"/><path class="cls-3" d="M327.69,69.5a49,49,0,0,1-.45,6.67,48.3,48.3,0,0,1-35.36,40L251.56,75.82,294.84,51l2.58.92L310,50.38,327.66,68C327.68,68.53,327.69,69,327.69,69.5Z" transform="translate(-231.14 -21.23)"/><g id="_16-2" data-name="16"><g id="_7" data-name="7"><polygon class="cls-4" points="65.11 29.72 65.03 29.81 65.02 29.81 65.11 29.72"/><polygon class="cls-5" points="27.28 21.07 27.25 20.96 27.29 21.08 27.28 21.07"/><polygon class="cls-6" points="43.57 29.32 44.45 24.94 27.25 20.96 27.29 21.08 27.28 21.07 27.18 21.05 23.8 37.82 23.76 37.81 23.39 39.63 23.43 39.64 23.27 40.42 23.24 40.41 22.87 42.23 22.91 42.24 20.42 54.59 39.94 59.11 42.42 46.76 42.79 44.93 42.95 44.16 43.31 42.34 45.24 32.76 45.47 31.63 45.83 29.84 43.57 29.32"/><polygon class="cls-7" points="65.03 29.81 65.02 29.81 65.11 29.72 48.94 25.98 48.06 30.36 45.83 29.84 45.47 31.63 45.24 32.76 43.31 42.34 42.95 44.16 42.79 44.93 42.42 46.76 39.94 59.11 58.45 63.39 65.21 29.85 65.03 29.81"/><polygon class="cls-8" points="46.69 25.6 45.58 31.11 43.32 30.58 44.45 24.94 46.71 25.47 46.69 25.6"/><polygon class="cls-9" points="45.58 31.11 46.69 25.6 46.71 25.47 48.94 25.98 47.8 31.62 45.58 31.11"/><path class="cls-10" d="M270,74.92a1,1,0,0,0-.25-.26,1.09,1.09,0,0,0-.17-.13,3.45,3.45,0,0,0-.43-.22l-.25-.09.51-2.54a1.77,1.77,0,0,0,1.37-.8,2.66,2.66,0,0,0,.46-1.07s0,0,0-.07L267.88,69a.14.14,0,0,0,0,.07,2.64,2.64,0,0,0,.19,1.69,1.68,1.68,0,0,0,.75.82l-.51,2.54L268,74a2.5,2.5,0,0,0-.48,0,1.2,1.2,0,0,0-.2,0,.82.82,0,0,0-.54.32h0l3.35.78A.54.54,0,0,0,270,74.92Z" transform="translate(-231.14 -21.23)"/><path class="cls-10" d="M266.82,70.09a2.54,2.54,0,0,0-.5-.7,2.22,2.22,0,0,0-.45-.36,2.53,2.53,0,0,0-.33-.16.36.36,0,0,0-.26-.27.34.34,0,0,0-.2,0,.57.57,0,0,0-.15.12,2.2,2.2,0,0,0-2.29,1.48l.08,0a.78.78,0,0,1,.24,0l.15,0a.9.9,0,0,1,.48.25,1.28,1.28,0,0,1,.41,0l.11,0a.9.9,0,0,1,.22.06l.24.09.12.08c0,.12-.05.26-.07.4l-.12.64-.09.42a1.42,1.42,0,0,1,0,.2c-.1.53-.2,1-.23,1.08s0,.1-.05.16l-.06.15a.86.86,0,0,1-.2.27l-.08.06a.62.62,0,0,1-.19.07.61.61,0,0,1-.3,0l-.09,0a.24.24,0,0,1-.09-.06.58.58,0,0,1-.17-.34,1.09,1.09,0,0,1,0-.36.39.39,0,0,0-.18,0,.48.48,0,0,0-.18,0,.3.3,0,0,0-.18.22.7.7,0,0,0,.13.48,1.21,1.21,0,0,0,.38.4.39.39,0,0,0,.11.06.49.49,0,0,0,.17.06h0l.14,0a1.31,1.31,0,0,0,.28,0l.28-.07a1,1,0,0,0,.32-.2.74.74,0,0,0,.12-.13,2.72,2.72,0,0,0,.36-1.15l.27-1.3c.05-.3.11-.59.17-.88a.78.78,0,0,1,.24,0l.31,0,.18,0a1.13,1.13,0,0,1,.27.14l.1.06a.68.68,0,0,1,.48,0,.79.79,0,0,1,.36.22,2.41,2.41,0,0,0-.1-.76C266.92,70.34,266.87,70.21,266.82,70.09Z" transform="translate(-231.14 -21.23)"/><path class="cls-10" d="M266.43,68.11a.18.18,0,0,0,.15-.16v0a.2.2,0,1,0-.38-.09v0a.19.19,0,0,0,0,.15A.23.23,0,0,0,266.43,68.11Z" transform="translate(-231.14 -21.23)"/><path class="cls-10" d="M257.53,68.16l.09,0,.54-.48-.86,4.29a.22.22,0,0,0,.17.24.2.2,0,0,0,.26-.14l.87-4.35.42.77a.22.22,0,0,0,.12.11h.17a.18.18,0,0,0,.12-.18.24.24,0,0,0,0-.08L258.7,67a.23.23,0,0,0-.07-.07.12.12,0,0,0-.09,0,.21.21,0,0,0-.19,0l-1.05.92a.16.16,0,0,0-.06.13.21.21,0,0,0,.07.14l.08.05h0A.21.21,0,0,0,257.53,68.16Z" transform="translate(-231.14 -21.23)"/><path class="cls-10" d="M260.84,73.21a.21.21,0,0,0-.1-.06l-3.87-.9a.21.21,0,0,0-.16,0,.25.25,0,0,0-.1.15.24.24,0,0,0,.17.28l3.87.9h0a.21.21,0,0,0,.23-.1.19.19,0,0,0,0-.08.17.17,0,0,0,0-.1A.19.19,0,0,0,260.84,73.21Z" transform="translate(-231.14 -21.23)"/><path class="cls-10" d="M265.8,68.77a.18.18,0,0,0,.14,0,.16.16,0,0,0,.08-.13v0a.19.19,0,0,0-.15-.24.2.2,0,0,0-.13,0,.18.18,0,0,0-.09.13v0A.2.2,0,0,0,265.8,68.77Z" transform="translate(-231.14 -21.23)"/><path class="cls-10" d="M264.46,68.5l.06,0a.18.18,0,0,0,.22-.16.2.2,0,0,0,0-.15.16.16,0,0,0-.12-.09h-.06a.16.16,0,0,0-.19.08A.2.2,0,0,0,264.46,68.5Z" transform="translate(-231.14 -21.23)"/><path class="cls-10" d="M265.29,68.07h0a.18.18,0,0,0,.2-.09.22.22,0,0,0,0-.21.18.18,0,0,0-.12-.1h0a.17.17,0,0,0-.19.09.24.24,0,0,0,0,.22A.16.16,0,0,0,265.29,68.07Z" transform="translate(-231.14 -21.23)"/><path class="cls-10" d="M267,68.85a.16.16,0,0,0,.15,0,.21.21,0,0,0,.07-.13.17.17,0,0,0,0-.07.19.19,0,0,0-.15-.17.17.17,0,0,0-.19.09.19.19,0,0,0,0,.07.26.26,0,0,0,0,.15A.19.19,0,0,0,267,68.85Z" transform="translate(-231.14 -21.23)"/><path class="cls-10" d="M261.34,67.59a.23.23,0,0,0-.07-.07.15.15,0,0,0-.09,0,.21.21,0,0,0-.19,0l-1,.92a.16.16,0,0,0,0,.21.13.13,0,0,0,0,.06.24.24,0,0,0,.11.06.21.21,0,0,0,.19,0l.55-.48-.87,4.29a.21.21,0,0,0,.18.24.19.19,0,0,0,.25-.14l.88-4.35.41.77a.25.25,0,0,0,.29.11l.07,0a.18.18,0,0,0,0-.22Z" transform="translate(-231.14 -21.23)"/><path class="cls-11" d="M276.64,71l-1.34,5.79,9.11,2.39,1.34-5.79Zm8.47,2.68.31.08-1.11,4.79-.31-.08Zm-.34-.09.31.08L284,78.44l-.31-.08Zm-1.13-.3.55.14-1.11,4.8-.55-.14Zm-.61-.16.3.08L282.22,78l-.31-.09Zm-.52-.14.3.08-1.11,4.8-.31-.08Zm-1.05-.27.62.16L281,77.66l-.61-.17Zm-.52-.14.31.08-1.11,4.8-.31-.08Zm-.7-.18.3.08-1.11,4.79-.31-.08Zm-.34-.09.31.08-1.11,4.8-.31-.09Zm-.71-.19.31.08L278.39,77l-.31-.08Zm-.33-.09.31.09-1.12,4.79-.3-.08Zm-.34-.08.31.08-1.11,4.79-.31-.08Zm-.8-.21.31.08-1.11,4.79-.31-.08Zm-.43-.12.31.09-1.11,4.79-.31-.08Zm-.52-.13.31.08L276,76.35l-.31-.09Z" transform="translate(-231.14 -21.23)"/><polygon class="cls-12" points="53.17 57.3 52.86 57.22 53.97 52.42 54.28 52.51 53.17 57.3"/><polygon class="cls-12" points="52.83 57.21 52.52 57.13 53.63 52.34 53.94 52.42 52.83 57.21"/><polygon class="cls-12" points="51.94 56.98 51.39 56.84 52.5 52.04 53.05 52.18 51.94 56.98"/><polygon class="cls-12" points="51.08 56.76 50.77 56.67 51.89 51.88 52.2 51.96 51.08 56.76"/><polygon class="cls-12" points="50.56 56.62 50.25 56.54 51.37 51.74 51.67 51.82 50.56 56.62"/><polygon class="cls-12" points="49.82 56.42 49.21 56.27 50.32 51.47 50.94 51.63 49.82 56.42"/><polygon class="cls-12" points="49 56.21 48.69 56.13 49.8 51.33 50.11 51.41 49 56.21"/><polygon class="cls-12" points="48.29 56.02 47.98 55.94 49.1 51.15 49.41 51.23 48.29 56.02"/><polygon class="cls-12" points="47.96 55.94 47.65 55.85 48.76 51.06 49.07 51.14 47.96 55.94"/><polygon class="cls-12" points="47.25 55.75 46.94 55.67 48.05 50.87 48.36 50.95 47.25 55.75"/><polygon class="cls-12" points="46.91 55.66 46.6 55.58 47.72 50.78 48.03 50.87 46.91 55.66"/><polygon class="cls-12" points="46.58 55.57 46.27 55.49 47.38 50.7 47.69 50.78 46.58 55.57"/><polygon class="cls-12" points="45.78 55.36 45.47 55.28 46.58 50.49 46.89 50.57 45.78 55.36"/><polygon class="cls-12" points="45.35 55.25 45.04 55.17 46.16 50.38 46.47 50.45 45.35 55.25"/><polygon class="cls-12" points="44.83 55.12 44.52 55.03 45.63 50.24 45.94 50.32 44.83 55.12"/><path class="cls-13" d="M296.68,54a.07.07,0,0,1,0,0C295,63.24,293,72.61,291,81.81h0c-.32,1.37-.52,2.32-.57,2.69-.13.62-.26,1.24-.4,1.86l-8.12-1.75c-7.37-1.58-16-3.4-21.71-4.49l-.71,3.3C268,85.05,282.61,88.2,291,90a1.68,1.68,0,0,0,2-1.29c0-.07,0-.14,0-.21l.8.08c.07-.53.15-1.07.22-1.6l1.07.12c1.7.19,3.36.24,3.43.24h.05a1.52,1.52,0,0,0,1.49-1.21l3.37-16.39a9.12,9.12,0,0,0-1-6.37s-2.06-3.42-3.17-5l.69-3.66c0-.05,0-.1,0-.16L297.42,52A8.54,8.54,0,0,0,296.68,54Zm3.15,10.84a6.15,6.15,0,0,1,.67,4.26l-3.12,15.13c-1.06-.06-2.08-.16-2.88-.28,1.08-6.83,2.51-14,3.9-21.06Z" transform="translate(-231.14 -21.23)"/><path class="cls-10" d="M310.15,50.85A7.65,7.65,0,0,0,305,47.91,7.55,7.55,0,0,0,297.42,52l2.6,2.59a4.2,4.2,0,0,1,4.67-3.29h.11a4.33,4.33,0,0,1,2.68,1.63,1.74,1.74,0,0,1,.45,1.31,1.68,1.68,0,1,0,3.29.71A5,5,0,0,0,310.15,50.85Z" transform="translate(-231.14 -21.23)"/><path class="cls-14" d="M301,86.24a7.78,7.78,0,0,0-13.67,0,7.54,7.54,0,0,0-.59,1.4,8,8,0,0,0-.36,2.31h0a7.78,7.78,0,0,0,15.55,0h0a7.87,7.87,0,0,0-.93-3.71Zm-10.3.24A4.89,4.89,0,0,1,299,90a4.79,4.79,0,0,1-1.44,3.45,4.86,4.86,0,0,1-3.46,1.44,4.91,4.91,0,0,1-4.89-4.91A4.85,4.85,0,0,1,290.66,86.48Z" transform="translate(-231.14 -21.23)"/><path class="cls-15" d="M294.11,94.84a4.86,4.86,0,0,0,3.46-1.44l-6.91-6.92a4.85,4.85,0,0,0-1.44,3.45A4.91,4.91,0,0,0,294.11,94.84Z" transform="translate(-231.14 -21.23)"/><path class="cls-16" d="M299,90a4.89,4.89,0,0,0-8.35-3.47l6.91,6.92A4.79,4.79,0,0,0,299,90Z" transform="translate(-231.14 -21.23)"/></g><path class="cls-17" d="M264.21,56.88l2.47.54-.19.87L264,57.76Z" transform="translate(-231.14 -21.23)"/><path class="cls-17" d="M267.92,59.11a2.78,2.78,0,0,0,1.6,1.16c.77.16,1.26-.09,1.37-.62s-.27-.83-.83-1.22l-.84-.61a2,2,0,0,1-1-2.1,2.13,2.13,0,0,1,2.7-1.42,3.14,3.14,0,0,1,1.9,1.32l-.78.63a2.33,2.33,0,0,0-1.35-.9c-.64-.14-1.13.07-1.24.57s.36.84.87,1.19l.84.58a2,2,0,0,1,1,2.14c-.24,1.1-1.35,1.81-2.88,1.48A3.63,3.63,0,0,1,267,59.78Z" transform="translate(-231.14 -21.23)"/><path class="cls-17" d="M274.45,55.2l1.2.26-.59,2.73,2.75.6.59-2.73,1.21.26-1.48,6.79-1.2-.27.65-3-2.75-.6-.65,3L273,62Z" transform="translate(-231.14 -21.23)"/><path class="cls-17" d="M280.25,60c.48-2.19,2-3.22,3.75-2.83s2.71,1.94,2.24,4.13-2,3.29-3.77,2.9S279.77,62.18,280.25,60ZM285,61c.33-1.51-.15-2.58-1.22-2.82s-2,.54-2.29,2.06.14,2.65,1.21,2.88S284.66,62.54,285,61Z" transform="translate(-231.14 -21.23)"/><path class="cls-17" d="M288.33,58.22l2.28.49c1.49.33,2.47,1.09,2.13,2.66s-1.6,2-3.06,1.64l-1.08-.23-.54,2.49L286.85,65ZM289.79,62c1,.21,1.59-.08,1.77-.91s-.27-1.25-1.25-1.46l-1-.22-.51,2.37Z" transform="translate(-231.14 -21.23)"/><path class="cls-17" d="M261.87,52.05c1.69.41,2.34,1.85,1.87,3.74a3,3,0,0,1-.19.6l-4.45-1.1a2.26,2.26,0,0,0,1.63,2.87,3.13,3.13,0,0,0,1.77-.11l.21.83a4.11,4.11,0,0,1-2.34.14,3.26,3.26,0,0,1-2.31-4.23A3.27,3.27,0,0,1,261.87,52.05Zm.93,3.38c.33-1.35-.09-2.24-1.12-2.49a2.11,2.11,0,0,0-2.41,1.62Z" transform="translate(-231.14 -21.23)"/></g></g></g></g></svg>