<svg id="Слой_1" data-name="Слой 1" xmlns="http://www.w3.org/2000/svg" viewBox="0 0 729.18 706.14"><defs><style>.cls-1{fill:#edc8a9;}.cls-2{fill:#1d1d1b;}.cls-3{fill:#d1af95;}.cls-4{fill:#44443f;}.cls-5{fill:#bcbcbc;}.cls-6{fill:#f4a845;}.cls-7{fill:#fff;}</style></defs><path class="cls-1" d="M2793.74,1466.24c-21-.94-43.95-1.47-72.62-6.1a17,17,0,0,0-7,.37c-14.21,3.73-27.94,9.07-41.47,14.86a18.14,18.14,0,0,0-9.38,9.25,125,125,0,0,1-13.95,23.69,5.29,5.29,0,0,0-.75,5.2c1.36,3.27,4.6,5.73,8.14,6.88,6.81,2.21,14.43,1.14,20.83-2s11.69-8.34,15.86-14.15c11.52.13,23.48-3.22,34.33-7.06a135.08,135.08,0,0,0,48.42,26.2c4.57,1.39,8.55-3.75,11.68-7.36C2799,1503,2801.26,1481.64,2793.74,1466.24Z" transform="translate(-2277.79 -1094.93)"/><path class="cls-2" d="M2753.67,1479.37,2574.51,1461c-13.09-1.35-21.82-12.54-19.53-24.83L2613.56,1121c1.49-8,11.09-13.55,21.46-12.48l142,14.6c10.37,1.06,18.44,8.43,18,16.54l-16.52,319.46C2777.9,1471.57,2766.76,1480.71,2753.67,1479.37Z" transform="translate(-2277.79 -1094.93)"/><path class="cls-1" d="M2528.55,1299.75c-29.9,11.85-43.59,46-67.79,67.19-8.81,7.72-17.94,15.26-24.88,24.69-10.25,13.93-15,31-20.22,47.5A726.07,726.07,0,0,1,2325,1627.24c-24,35.49-36.71,76.84-47.22,118.81a195.32,195.32,0,0,0,58.7,40.38c12.4,5.56,28.51,10.37,46.43,13.15l.75.12c10.42.92,18,1.88,33,1.07,15.07-62.45-5.56-138.34,35.89-186.93a347.93,347.93,0,0,0,78.2-168.73c3.93-24.11,20.63-38.81,26.2-62.6,15.49-15.23,34.11-26.87,50.62-41s14.22-39.68,18.37-61A275,275,0,0,0,2528.55,1299.75Z" transform="translate(-2277.79 -1094.93)"/><path class="cls-3" d="M2544.34,1379.19a1.5,1.5,0,0,1-1.11-2.51c10.91-12,21.67-26.83,32.9-45.45a1.62,1.62,0,0,1,.71-.61,234.87,234.87,0,0,0,27.63-13.58,1.5,1.5,0,0,1,1.5,2.6,236.25,236.25,0,0,1-27.52,13.56c-11.24,18.59-22,33.48-33,45.5A1.48,1.48,0,0,1,2544.34,1379.19Z" transform="translate(-2277.79 -1094.93)"/><path class="cls-1" d="M2620.41,1348.34a283.85,283.85,0,0,0-94.88,26.14c-54.06,87.67-94,182.1-121.1,281.48-12.78,46.88-31,92.46-38.89,140.19,8.72,2.12,14.94,3,18.13,3.55a192.6,192.6,0,0,0,42.77.29c7.57-35.08,8.47-71.88,14.17-107.53,2-12.29,4.61-24.57,12.58-34.12,9.57-11.46,22.32-19.75,33.46-29.69,22.86-20.4,38.6-47.38,54-73.89,55.52-95.82,60.07-102.79,67.23-119.56C2619.51,1407.86,2623.23,1377.93,2620.41,1348.34Z" transform="translate(-2277.79 -1094.93)"/><path class="cls-1" d="M3007,1736a668.09,668.09,0,0,1-58.13-63.85c-41.25-51.66-56-87.74-52.34-161.4,1.69-34.56,3.38-69.13,3.37-103.73,0-28.44-3.35-36-18.44-55.66-19.95-26-38.39-51.29-58.16-77.42-7.13-9.42-19-13.59-30.09-17.76a407.87,407.87,0,0,1-68.75-33.65c-16.55,60.3-16.85,125.92,2.54,185.37,10.31,6.14,20.81,9.71,32.23,13.4,8.2,2.65,16.79,4.72,23.89,9.61s12.48,13.53,10.55,21.93c-6,26.3-22,41-30.58,66.58s-14,53.55-6.25,79.38c9.88,32.81,42.48,64.22,65.12,89.93,26.31,29.9,45.27,65.42,64,100.59,17.19-.28,33.05-.84,50-3.55,15-2.38,30.08-5.8,43.3-13.25S3003.35,1750.74,3007,1736Z" transform="translate(-2277.79 -1094.93)"/><path class="cls-4" d="M2753.67,1465.94l-179.16-18.42c-13.09-1.35-21.82-12.54-19.53-24.83l58.58-315.14c1.49-8,11.09-13.55,21.46-12.48l142,14.6c10.37,1.06,18.44,8.43,18,16.53l-16.52,319.47C2777.9,1458.13,2766.76,1467.28,2753.67,1465.94Z" transform="translate(-2277.79 -1094.93)"/><path class="cls-5" d="M2752.88,1458,2579,1440.15c-9.9-1-16.54-9.46-14.86-18.77l56.47-311.78c1.11-6.1,8.41-10.35,16.32-9.54l138.91,14.28c7.91.82,14.05,6.44,13.7,12.62l-17.8,315.76C2771.24,1452.15,2762.78,1459,2752.88,1458Z" transform="translate(-2277.79 -1094.93)"/><path class="cls-6" d="M2752.88,1458,2579,1440.15c-9.9-1-16.54-9.46-14.86-18.77l56.47-311.78c1.11-6.1,8.41-10.35,16.32-9.54l138.91,14.28c7.91.82,14.05,6.44,13.7,12.62l-17.8,315.76C2771.24,1452.15,2762.78,1459,2752.88,1458Z" transform="translate(-2277.79 -1094.93)"/><path class="cls-7" d="M2743.69,1244.66c-.17,2.13-2.37,3.66-4.9,3.4s-4.42-2.21-4.23-4.34,2.38-3.64,4.9-3.38S2743.87,1242.53,2743.69,1244.66Z" transform="translate(-2277.79 -1094.93)"/><path class="cls-7" d="M2681.12,1321a4.54,4.54,0,0,1,4.32,4.79,4.7,4.7,0,0,1-5.34,3.81,4.52,4.52,0,0,1-4.32-4.8A4.72,4.72,0,0,1,2681.12,1321Z" transform="translate(-2277.79 -1094.93)"/><path class="cls-7" d="M2686.32,1277c2.59.26,4.48,2.29,4.22,4.53s-2.58,3.86-5.18,3.59-4.48-2.31-4.21-4.55S2683.74,1276.72,2686.32,1277Z" transform="translate(-2277.79 -1094.93)"/><path class="cls-7" d="M2691.25,1235.39c2.51.26,4.35,2.18,4.11,4.3s-2.5,3.64-5,3.38-4.37-2.19-4.11-4.32S2688.73,1235.13,2691.25,1235.39Z" transform="translate(-2277.79 -1094.93)"/><path class="cls-7" d="M2630.13,1315.74c2.66.28,4.54,2.41,4.19,4.77a4.89,4.89,0,0,1-5.48,3.8c-2.68-.27-4.55-2.42-4.18-4.79A4.89,4.89,0,0,1,2630.13,1315.74Z" transform="translate(-2277.79 -1094.93)"/><path class="cls-7" d="M2636.76,1271.89c2.59.27,4.42,2.29,4.09,4.52s-2.71,3.85-5.31,3.58-4.43-2.3-4.08-4.54S2634.18,1271.63,2636.76,1271.89Z" transform="translate(-2277.79 -1094.93)"/><path class="cls-7" d="M2643,1230.43c2.51.26,4.3,2.18,4,4.29s-2.62,3.63-5.15,3.37-4.31-2.19-4-4.31S2640.52,1230.17,2643,1230.43Z" transform="translate(-2277.79 -1094.93)"/><path class="cls-7" d="M2732.1,1326.23a4.7,4.7,0,0,1,4.46,4.79,4.52,4.52,0,0,1-5.2,3.83,4.71,4.71,0,0,1-4.46-4.82A4.52,4.52,0,0,1,2732.1,1326.23Z" transform="translate(-2277.79 -1094.93)"/><path class="cls-7" d="M2735.88,1282.08c2.59.27,4.53,2.3,4.35,4.55s-2.45,3.87-5.05,3.6-4.54-2.31-4.34-4.56S2733.29,1281.82,2735.88,1282.08Z" transform="translate(-2277.79 -1094.93)"/><path class="cls-1" d="M2872.17,1458.07l-22.83-46.5c-4.15-8.46-8.31-16.93-11.62-25.75-6.62-17.6-9.65-36.06-15.46-53.74a23.61,23.61,0,0,0-20.67-16.11c-2.7-.21-5.42-.36-8.11-.58a168.2,168.2,0,0,1-25.63-4.07c-9.63-2.3-20-5.42-29.12-1.5-6.62,2.84-8,12.25-6.31,19.24s6.09,13,10.46,18.74c3.75,4.89,7.61,9.77,12.35,13.7s10.47,6.91,16.61,7.43c3.14,61.79-24.26,123.65-13.78,184.63,2.59,15.07,8.41,31,21.54,38.85,12.92,7.72,30.14,5.28,42.69-3s21.07-21.49,27.28-35.2C2863.5,1523.44,2887.05,1488.39,2872.17,1458.07Z" transform="translate(-2277.79 -1094.93)"/><path class="cls-3" d="M2747,1330.17a1.42,1.42,0,0,1-.61-.13c-5.3-2.37-11.47-7.31-11.41-13.39a1.49,1.49,0,0,1,1.5-1.49h0a1.51,1.51,0,0,1,1.49,1.51c0,4,4.11,7.85,8.56,10.12a29.57,29.57,0,0,1,20.54-11.16,1.5,1.5,0,0,1,.26,3,26.53,26.53,0,0,0-19.12,10.92A1.49,1.49,0,0,1,2747,1330.17Z" transform="translate(-2277.79 -1094.93)"/><path class="cls-1" d="M2386.4,1618a124.18,124.18,0,0,0,41.77-2.7c13-3,25.89-7.89,35.62-17,10.32-9.62,16.17-23,20.81-36.35s9.16-25.39,15.65-37.92c6.36-12.26,20.32-18.52,33.75-21.72s27.58-4.36,40-10.48c13.36-6.61,23.69-18,32.72-30a19.54,19.54,0,0,0,2.22-19.78c-1.86-4.11-4.62-7.58-8.69-9.48-3.45-1.6-7.37-1.81-11.18-1.86-17.63-.24-35.19,0-51.29,7.16-18.27,8.14-33.58,21.89-51.72,30.31a99.36,99.36,0,0,1-26.32,8c-15.46,2.45-32,1.39-45.9,8.54-18.15,9.31-21.39,34.12-27.14,53.69-6,20.47-10.78,41.62-9.9,62.93.16,3.8.52,7.67,2.06,11.16A9.41,9.41,0,0,0,2386.4,1618Z" transform="translate(-2277.79 -1094.93)"/><path class="cls-1" d="M2518.57,1376.51c22.09-26.16,28.32-62.6,44.87-92.83,6.84-12.49,15.41-23.87,22.79-36s13.63-25.47,15.06-39.75c.55-5.53.35-11.24-1.52-16.44a22.13,22.13,0,0,0-5.86-9,6.4,6.4,0,0,0-8.34-.17c-6.22,5.16-11.57,11.6-14.38,19.25-11.81,9.09-19,25-28,37.12-10.44,14.16-25.22,24.33-36,38.25-17,22.06-22.61,51.76-39.64,73.81-10.23,13.25-24.23,23.25-33,37.58a57.27,57.27,0,0,0-8.27,34.53c.5,6.5,2.12,13.13,6,18.24,5.12,6.69,13.66,9.93,21.9,9.85s16.21-3.15,23.45-7.22C2502.6,1429.76,2515,1405.56,2518.57,1376.51Z" transform="translate(-2277.79 -1094.93)"/><path class="cls-3" d="M2575.49,1204.92a1.5,1.5,0,0,1-.34-3,21.07,21.07,0,0,0,14.4-12.16,1.5,1.5,0,1,1,2.76,1.17,24.16,24.16,0,0,1-16.48,13.92A2,2,0,0,1,2575.49,1204.92Z" transform="translate(-2277.79 -1094.93)"/><path class="cls-3" d="M2653.29,1512.72a1.5,1.5,0,0,1-.19-3,12.4,12.4,0,0,0,7-3.82,39.82,39.82,0,0,0,5.15-7.06l3.75-6a1.5,1.5,0,1,1,2.55,1.59l-3.76,6a42.31,42.31,0,0,1-5.55,7.58,15.37,15.37,0,0,1-8.72,4.69Z" transform="translate(-2277.79 -1094.93)"/><path class="cls-3" d="M2584.36,1472.26a8.37,8.37,0,0,1-6.17-2.72c-4-4.36-8.79-13.69-10.07-19.58a8.31,8.31,0,0,1,2.46-7.74c5.61-5.3,12.34-7.47,23.24-7.47,5.06,0,8.76,5.28,10.52,8.42,2.25,4,3.2,10.3.56,14a41.54,41.54,0,0,1-17.41,14.43A8.13,8.13,0,0,1,2584.36,1472.26Zm9.46-34.51c-10.05,0-16.18,1.93-21.18,6.65a5.31,5.31,0,0,0-1.59,4.93c1.17,5.37,5.71,14.21,9.35,18.18a5.33,5.33,0,0,0,5.94,1.36,38.56,38.56,0,0,0,16.11-13.4h0c1.78-2.51,1.06-7.63-.73-10.83C2600.82,1443,2597.58,1437.75,2593.82,1437.75Z" transform="translate(-2277.79 -1094.93)"/><path class="cls-3" d="M2511.28,1425.23a1.5,1.5,0,0,1-1.38-2.08c6.56-15.62,9-27,11.52-39,4.22-19.83,9-42.3,34.18-89.67a1.49,1.49,0,0,1,2-.62,1.51,1.51,0,0,1,.63,2c-25,47-29.72,69.25-33.89,88.89-2.58,12.14-5,23.61-11.7,39.49A1.48,1.48,0,0,1,2511.28,1425.23Z" transform="translate(-2277.79 -1094.93)"/><path class="cls-3" d="M2872.17,1459.57a1.49,1.49,0,0,1-1.34-.82c-2.44-4.83-4.92-9.65-7.4-14.47-8.24-16-16.76-32.58-23.74-49.57-4.09-9.94-8.63-21.77-11.31-34.12-.4-1.84-.78-3.7-1.16-5.56-1.8-8.81-3.66-17.91-8-25.85-3.05-5.62-6.54-8.74-11.67-10.42-4.48-1.47-9.38-1.74-14.12-2l-1.66-.09a1.5,1.5,0,0,1-1.4-1.59,1.47,1.47,0,0,1,1.58-1.41l1.65.1c4.93.27,10,.56,14.88,2.15,5.85,1.92,10,5.57,13.38,11.84,4.52,8.34,6.42,17.66,8.27,26.67.37,1.86.75,3.7,1.15,5.54,2.63,12.11,7.12,23.79,11.15,33.61,6.94,16.87,15.43,33.38,23.64,49.34q3.72,7.23,7.41,14.49a1.5,1.5,0,0,1-.67,2A1.44,1.44,0,0,1,2872.17,1459.57Z" transform="translate(-2277.79 -1094.93)"/><path class="cls-3" d="M2764.86,1586.89a1.49,1.49,0,0,1-1.43-1.06,220.77,220.77,0,0,1-8-92.4,1.5,1.5,0,0,1,3,.37,218,218,0,0,0,7.93,91.15,1.49,1.49,0,0,1-1,1.87A1.31,1.31,0,0,1,2764.86,1586.89Z" transform="translate(-2277.79 -1094.93)"/><path class="cls-3" d="M2399.05,1620.17a113,113,0,0,1-12.83-.72,1.5,1.5,0,0,1,.35-3,122.39,122.39,0,0,0,41.26-2.68c15.28-3.49,26.71-8.91,34.94-16.59,10.09-9.4,14.73-21.46,19.65-34.24,2.8-7.26,5.69-14.76,9.66-21.68,7.51-13.06,16.06-22.11,27.73-29.33a142.34,142.34,0,0,1,26.2-12.7c3.7-1.34,7.52-2.36,11.21-3.33,5.64-1.5,11-2.91,16.07-5.44,14.15-7,24.63-19.48,32.19-29.57a18.08,18.08,0,0,0,2.06-18.27c-1.92-4.23-4.6-7.17-8-8.74s-7-1.67-10.57-1.72c-18.52-.25-35.12.1-50.66,7-9.26,4.12-17.93,9.83-26.33,15.35-8.07,5.31-16.42,10.8-25.36,15a101.21,101.21,0,0,1-26.73,8.15,1.5,1.5,0,0,1-.47-3,98.39,98.39,0,0,0,25.93-7.91c8.74-4.06,17-9.49,25-14.74,8.49-5.58,17.27-11.36,26.74-15.58,16.09-7.17,33.74-7.53,51.93-7.29,3.91.06,8,.25,11.8,2,4,1.87,7.2,5.31,9.42,10.21a21,21,0,0,1-2.39,21.3c-7.75,10.36-18.54,23.19-33.26,30.47-5.37,2.66-11.09,4.18-16.63,5.65-3.63,1-7.38,2-11,3.25a139.45,139.45,0,0,0-25.64,12.43c-11.22,7-19.46,15.67-26.71,28.27-3.86,6.72-6.71,14.12-9.46,21.27-4.82,12.53-9.81,25.48-20.41,35.36-8.62,8-20.5,13.71-36.31,17.32A132.35,132.35,0,0,1,2399.05,1620.17Z" transform="translate(-2277.79 -1094.93)"/><path class="cls-3" d="M2488.58,1614.75a1.42,1.42,0,0,1-.53-.1,1.5,1.5,0,0,1-.87-1.94,153.16,153.16,0,0,0,8.6-75.34,1.5,1.5,0,0,1,3-.41,156.15,156.15,0,0,1-8.77,76.82A1.49,1.49,0,0,1,2488.58,1614.75Z" transform="translate(-2277.79 -1094.93)"/><path class="cls-3" d="M2559.31,1484.85a1.5,1.5,0,0,1-1.48-1.24c-2-11.79-5.58-26.54-15.58-36.06a1.5,1.5,0,1,1,2.07-2.17c10.64,10.13,14.39,25.48,16.47,37.72a1.5,1.5,0,0,1-1.23,1.73A1.06,1.06,0,0,1,2559.31,1484.85Z" transform="translate(-2277.79 -1094.93)"/><path class="cls-3" d="M2770.8,1343.09a1.5,1.5,0,0,1-1.37-2.12,39.94,39.94,0,0,1,24.84-21.58,1.5,1.5,0,1,1,.84,2.88,36.92,36.92,0,0,0-23,19.94A1.5,1.5,0,0,1,2770.8,1343.09Z" transform="translate(-2277.79 -1094.93)"/><path class="cls-3" d="M2873.1,1389a1.47,1.47,0,0,1-.85-.26,34.82,34.82,0,0,0-16.87-5.64,64.7,64.7,0,0,0-18.24,1.4,1.5,1.5,0,1,1-.59-3,68.3,68.3,0,0,1,19.07-1.44,37.91,37.91,0,0,1,18.33,6.16,1.49,1.49,0,0,1,.38,2.08A1.48,1.48,0,0,1,2873.1,1389Z" transform="translate(-2277.79 -1094.93)"/><path class="cls-7" d="M2731.75,1331.54h-.11l-51.14-5.25a1,1,0,0,1-.7-1.58l57.85-79.72-46.21-5.74-4.6,41.92a1,1,0,0,1-1.73.57l-42-45.27-12.67,83.72a1,1,0,1,1-2-.3l13-85.77a1,1,0,0,1,1.72-.53l41.9,45.19,4.48-40.76a1,1,0,0,1,1.11-.88l48.9,6.08a1,1,0,0,1,.79.59,1,1,0,0,1-.11,1l-57.82,79.68,49.41,5.07a1,1,0,0,1-.1,2Z" transform="translate(-2277.79 -1094.93)"/></svg>